mtllib error_x.mtl
o Cube
v -1.000000 0.000000 1.414214
v -1.000000 1.414214 0.000000
v -1.000000 -1.414214 0.000000
v -1.000000 0.000000 -1.414214
v 1.000000 0.000000 1.414214
v 1.000000 1.414214 0.000000
v 1.000000 -1.414214 0.000000
v 1.000000 0.000000 -1.414214
v -1.000000 1.414214 0.000000
v -1.000000 0.000000 -1.414214
v 1.000000 0.000000 -1.414214
v 1.000000 1.414214 0.000000
v -1.000000 -1.414214 0.000000
v -1.000000 0.000000 1.414214
v -1.000000 1.414214 0.000000
v -1.000000 0.000000 -1.414214
v 1.000000 -1.414214 0.000000
v 1.000000 0.000000 -1.414214
v 1.000000 0.000000 1.414214
v 1.000000 1.414214 0.000000
v -1.000000 1.414214 0.000000
v -1.000000 0.000000 -1.414214
v 1.000000 0.000000 -1.414214
v 1.000000 1.414214 0.000000
v -1.000000 -7.541393 -6.127180
v -1.000000 -6.127180 -7.541393
v 1.000000 -6.127180 -7.541393
v 1.000000 -7.541393 -6.127180
v 1.000000 6.127180 7.541393
v 1.000000 7.541393 6.127180
v -1.000000 7.541393 6.127180
v -1.000000 6.127180 7.541393
v -1.000000 -7.541393 6.127180
v 1.000000 -7.541393 6.127180
v 1.000000 -6.127180 7.541393
v -1.000000 -6.127180 7.541393
v 1.000000 6.127180 -7.541393
v -1.000000 6.127180 -7.541393
v -1.000000 7.541393 -6.127180
v 1.000000 7.541393 -6.127180
v 1.000000 0.000000 -1.414214
v -1.000000 0.000000 -1.414214
v -1.000000 0.000000 -1.414214
v 1.000000 0.000000 -1.414214
vn -1.0000 -0.0000 -0.0000
vn -0.0000 0.7071 -0.7071
vn 1.0000 -0.0000 -0.0000
vn -0.0000 -0.7071 -0.7071
vn -0.0000 -0.7071 0.7071
vn -0.0000 0.7071 0.7071
vt 0.375000 0.000000
vt 0.625000 0.000000
vt 0.625000 0.250000
vt 0.375000 0.250000
vt 0.625000 0.750000
vt 0.625000 1.000000
vt 0.375000 0.500000
vt 0.625000 0.500000
vt 0.375000 0.750000
vt 0.375000 1.000000
vt 0.125000 0.500000
vt 0.125000 0.750000
vt 0.875000 0.500000
vt 0.875000 0.750000
s 0
usemtl Material.001
f 1/1/1 2/2/1 4/3/1 3/4/1
f 6/5/2 2/6/2 15/6/2 20/5/2
f 7/7/3 8/8/3 6/5/3 5/9/3
f 12/5/2 11/8/2 23/8/2 24/5/2
f 7/7/2 5/9/2 19/9/2 17/7/2
f 4/3/2 2/2/2 9/2/2 10/3/2
f 1/1/2 3/4/2 13/4/2 14/1/2
f 2/6/2 6/5/2 12/5/2 9/6/2
f 4/3/2 10/3/2 22/3/2 16/3/2
f 6/5/2 8/8/2 11/8/2 12/5/2
f 2/2/2 1/1/2 14/1/2 15/2/2
f 9/6/2 12/5/2 24/5/2 21/6/2
f 10/3/2 9/2/2 21/2/2 22/3/2
f 11/8/2 8/8/2 18/8/2 23/8/2
f 5/9/2 6/5/2 20/5/2 19/9/2
f 8/8/2 7/7/2 17/7/2 18/8/2
f 3/4/2 4/3/2 16/3/2 13/4/2
f 25/4/4 26/3/4 27/8/4 28/7/4
f 16/3/1 26/3/1 25/4/1 13/4/1
f 18/8/2 27/8/2 26/3/2 16/3/2
f 17/7/3 28/7/3 27/8/3 18/8/3
f 13/4/5 25/4/5 28/7/5 17/7/5
f 29/9/6 30/5/6 31/6/6 32/10/6
f 20/5/3 30/5/3 29/9/3 19/9/3
f 15/6/2 31/6/2 30/5/2 20/5/2
f 14/10/1 32/10/1 31/6/1 15/6/1
f 19/9/5 29/9/5 32/10/5 14/10/5
f 33/11/5 34/7/5 35/9/5 36/12/5
f 17/7/4 34/7/4 33/11/4 13/11/4
f 19/9/3 35/9/3 34/7/3 17/7/3
f 14/12/6 36/12/6 35/9/6 19/9/6
f 13/11/1 33/11/1 36/12/1 14/12/1
f 37/8/2 38/13/2 39/14/2 40/5/2
f 22/13/4 38/13/4 37/8/4 23/8/4
f 21/14/1 39/14/1 38/13/1 22/13/1
f 24/5/6 40/5/6 39/14/6 21/14/6
f 23/8/3 37/8/3 40/5/3 24/5/3
f 41/8/2 42/3/2 43/3/2 44/8/2
f 16/3/2 42/3/2 41/8/2 18/8/2
f 22/3/2 43/3/2 42/3/2 16/3/2
f 23/8/2 44/8/2 43/3/2 22/3/2
f 18/8/2 41/8/2 44/8/2 23/8/2